<svg xmlns="http://www.w3.org/2000/svg" xmlns:xlink="http://www.w3.org/1999/xlink" xml:space="preserve" version="1.1" style="shape-rendering:geometricPrecision;text-rendering:geometricPrecision;image-rendering:optimizeQuality;" viewBox="0 0 100 125" x="0px" y="0px" fill-rule="evenodd" clip-rule="evenodd"><defs><style type="text/css">
   
    .fil1 {fill:none}
    .fil0 {fill:black}
   
  </style></defs><g><path class="fil0" d="M50 7c23,0 43,20 43,43 0,23 -20,43 -43,43 -23,0 -43,-20 -43,-43 0,-23 20,-43 43,-43zm-22 58l15 -15 -15 -15 7 -7 15 15 15 -15 7 7 -15 15 15 15 -7 7 -15 -15 -15 15 -7 -7zm22 -49c19,0 34,15 34,34 0,19 -15,34 -34,34 -19,0 -34,-15 -34,-34 0,-19 15,-34 34,-34z"/><rect class="fil1" width="100" height="100"/></g></svg>