
<svg xmlns="http://www.w3.org/2000/svg" viewBox="0 0 244.33 94.51">
<title>music-forecast-logo</title>
	<g stroke="rgb(50, 50, 50)" stroke-width="1.4" stroke-miterlimit="10" fill="none">
		<path d="M88.31,56.29V31.48a1.09,1.09,0,0,1,1.08-1.08h2.68a1.31,1.31,0,0,1,1,.37,6.28,6.28,0,0,1,.59.67,1,1,0,0,0,.86.36,2.23,2.23,0,0,0,1.14-.32c.36-.21.76-.44,1.19-.67a13.15,13.15,0,0,1,1.45-.69,5.28,5.28,0,0,1,2-.33,7,7,0,0,1,3.12.61,15,15,0,0,1,2.31,1.4,2.06,2.06,0,0,0,1.18.43,2.25,2.25,0,0,0,1.27-.43,14.38,14.38,0,0,1,2.47-1.39,8.11,8.11,0,0,1,3.29-.62A9.92,9.92,0,0,1,121,32.72a9.66,9.66,0,0,1,2.11,3.18,10.34,10.34,0,0,1,.76,3.93V56.29a1.13,1.13,0,0,1-1.08,1.08H118a1.13,1.13,0,0,1-1.08-1.08V39.78a3.12,3.12,0,0,0-.88-2.26,3.52,3.52,0,0,0-2.62-.91,3.9,3.9,0,0,0-2.75.94,3,3,0,0,0-1,2.28V56.29a1,1,0,0,1-.33.75,1,1,0,0,1-.75.33h-4.84a1.13,1.13,0,0,1-1.08-1.08V39.78a3.09,3.09,0,0,0-.9-2.26,3.54,3.54,0,0,0-2.63-.91,4.12,4.12,0,0,0-2.75.86,2.64,2.64,0,0,0-1,2.09V56.29A1.05,1.05,0,0,1,95,57a1,1,0,0,1-.77.33H89.39a1.13,1.13,0,0,1-1.08-1.08Z"/>
		<path d="M129.55,47.94V31.48a1.06,1.06,0,0,1,.32-.75,1,1,0,0,1,.76-.33h4.85a1,1,0,0,1,.75.33,1,1,0,0,1,.32.75V48a2.85,2.85,0,0,0,1.06,2.25,4.38,4.38,0,0,0,3,.91,4.68,4.68,0,0,0,3-.85,2.59,2.59,0,0,0,1.08-2.1V31.48a1.13,1.13,0,0,1,1.08-1.08h4.85a1.13,1.13,0,0,1,1.08,1.08V56.29a1.06,1.06,0,0,1-.32.75,1,1,0,0,1-.76.33h-2.69a1.55,1.55,0,0,1-.75-.16,2.33,2.33,0,0,1-.49-.37c-.17-.14-.35-.27-.51-.38a1.13,1.13,0,0,0-.67-.17,2.35,2.35,0,0,0-1.12.27c-.35.19-.71.38-1.11.57a13,13,0,0,1-1.42.57,6.59,6.59,0,0,1-2,.27,10.45,10.45,0,0,1-7.25-2.92,10.07,10.07,0,0,1-2.19-3.19A9.78,9.78,0,0,1,129.55,47.94Z"/>
		<path d="M156.6,48.52a1.05,1.05,0,0,1,.31-.75,1,1,0,0,1,.74-.33h4.11c.65,0,1.06.11,1.24.33a2.47,2.47,0,0,1,.39,1,2.55,2.55,0,0,0,1.5,2.19,7.61,7.61,0,0,0,3.24.63,8.42,8.42,0,0,0,3.58-.65,2,2,0,0,0,1.37-1.88,1.58,1.58,0,0,0-.42-1.15,2.14,2.14,0,0,0-1.14-.58c-.49-.09-1-.21-1.6-.36s-1.18-.26-1.78-.35c-1.1-.18-2.27-.43-3.54-.76a13.23,13.23,0,0,1-3.51-1.44,8.55,8.55,0,0,1-2.7-2.52A6.77,6.77,0,0,1,157.31,38a6,6,0,0,1,1-3.31,9,9,0,0,1,2.52-2.59,12.85,12.85,0,0,1,3.47-1.68,13.1,13.1,0,0,1,3.89-.61,15,15,0,0,1,3.72.49,11.19,11.19,0,0,1,3.43,1.52,8.33,8.33,0,0,1,2.53,2.71,7.8,7.8,0,0,1,1,4,1,1,0,0,1-.31.73,1,1,0,0,1-.77.32h-4a1.33,1.33,0,0,1-.78-.23,1.49,1.49,0,0,1-.47-1.1,2.37,2.37,0,0,0-1.52-1.9,7.12,7.12,0,0,0-2.81-.56,7.74,7.74,0,0,0-3.09.54A1.77,1.77,0,0,0,163.79,38a1.29,1.29,0,0,0,.37,1,2,2,0,0,0,1,.51l1.4.31,1.58.36,3.77.81a14.7,14.7,0,0,1,3.69,1.32,7.16,7.16,0,0,1,3.95,6.91,7.18,7.18,0,0,1-.92,3.61,9,9,0,0,1-2.48,2.76,11.62,11.62,0,0,1-3.63,1.79,15.1,15.1,0,0,1-4.4.63,17.93,17.93,0,0,1-4.29-.51,10.82,10.82,0,0,1-3.7-1.65,8.16,8.16,0,0,1-2.58-2.94A9.19,9.19,0,0,1,156.6,48.52Z"/>
		<path d="M184.54,25.76V19.94a.94.94,0,0,1,.23-.59.81.81,0,0,1,.64-.27h5.82a.78.78,0,0,1,.61.26.84.84,0,0,1,.26.6v5.82a.77.77,0,0,1-.87.87h-5.82A.77.77,0,0,1,184.54,25.76Zm.26,30.74V31.27a.84.84,0,0,1,.25-.59.79.79,0,0,1,.62-.28H191a.8.8,0,0,1,.61.26.89.89,0,0,1,.24.61V56.5a.88.88,0,0,1-.24.59.78.78,0,0,1-.61.28h-5.29a.89.89,0,0,1-.87-.87Z"/>
		<path d="M197.63,46.07q-.06-1.05-.06-2.19c0-.75,0-1.48.06-2.18s.08-1.33.15-1.87a13.46,13.46,0,0,1,1.11-3.94,10,10,0,0,1,2.27-3.17,10.59,10.59,0,0,1,3.39-2.14,12,12,0,0,1,4.45-.79,12.39,12.39,0,0,1,4.22.72,10,10,0,0,1,5.9,5.42,10.78,10.78,0,0,1,.89,4.45,1.24,1.24,0,0,1-.24.75.77.77,0,0,1-.68.33H214.3a1.08,1.08,0,0,1-.67-.22.88.88,0,0,1-.36-.65A3.66,3.66,0,0,0,212,37.71a6.13,6.13,0,0,0-6-.16,3.4,3.4,0,0,0-1.17,2.28c-.07.54-.12,1.17-.16,1.87s0,1.43,0,2.18,0,1.49,0,2.19.09,1.32.16,1.87a3.13,3.13,0,0,0,1.16,2.2,4.86,4.86,0,0,0,3.05.8,4.78,4.78,0,0,0,2.87-.78,4.23,4.23,0,0,0,1.4-3,1,1,0,0,1,1-.87h4.79a.8.8,0,0,1,.67.33,1.19,1.19,0,0,1,.25.75,10.57,10.57,0,0,1-.89,4.42,10.22,10.22,0,0,1-2.4,3.32,10.77,10.77,0,0,1-3.5,2.11A12.16,12.16,0,0,1,209,58a11.84,11.84,0,0,1-4.45-.79,10.4,10.4,0,0,1-3.39-2.13,10.13,10.13,0,0,1-2.27-3.19,13.6,13.6,0,0,1-1.11-3.92C197.71,47.39,197.66,46.77,197.63,46.07Z"/>
		<path d="M48.45,72V67.67a1,1,0,0,1,.33-.75,1,1,0,0,1,.75-.33h4.31a.49.49,0,0,0,.56-.52V65a9.59,9.59,0,0,1,.8-3.91,10,10,0,0,1,2.2-3.14,10.09,10.09,0,0,1,3.27-2.08,10.54,10.54,0,0,1,4-.75h3.24a1,1,0,0,1,.74.32,1,1,0,0,1,.31.76v4.87a1.05,1.05,0,0,1-.31.75,1,1,0,0,1-.74.33H64.64a3.41,3.41,0,0,0-2.29.81,2.7,2.7,0,0,0-1,2.15v1a.46.46,0,0,0,.53.52h6.48a1.13,1.13,0,0,1,1.08,1.08V72a1.13,1.13,0,0,1-1.08,1.08H61.93a.47.47,0,0,0-.53.53V92.32a1.13,1.13,0,0,1-1.08,1.08H55.45a1,1,0,0,1-.74-.33,1.05,1.05,0,0,1-.31-.75V73.6c0-.36-.19-.53-.56-.53H49.53a1,1,0,0,1-.75-.33A1,1,0,0,1,48.45,72Z"/>
		<path d="M70.83,82.1c0-.7,0-1.43,0-2.18s0-1.49,0-2.19.09-1.32.16-1.87a13.23,13.23,0,0,1,1.1-3.94,10.07,10.07,0,0,1,2.24-3.17,10.6,10.6,0,0,1,3.35-2.13,11.4,11.4,0,0,1,4.38-.79,11.86,11.86,0,0,1,4.46.79,10.26,10.26,0,0,1,3.37,2.13,10.81,10.81,0,0,1,2.27,3.19,12.74,12.74,0,0,1,1.13,3.92c.07.55.13,1.17.16,1.87s.06,1.43.06,2.19,0,1.48-.06,2.18-.09,1.33-.16,1.87a13.15,13.15,0,0,1-1.1,3.94,10.21,10.21,0,0,1-2.27,3.17,10.65,10.65,0,0,1-3.38,2.14,12.76,12.76,0,0,1-8.84,0,10.6,10.6,0,0,1-3.37-2.14,10,10,0,0,1-2.24-3.17A13.15,13.15,0,0,1,71,84C70.92,83.43,70.87,82.8,70.83,82.1Zm6.88-4.37c0,.7-.08,1.43-.08,2.19s0,1.48.08,2.18.11,1.33.18,1.87a3.44,3.44,0,0,0,1.16,2.2,6,6,0,0,0,6,0A3.43,3.43,0,0,0,86.29,84c.07-.54.12-1.17.16-1.87s0-1.43,0-2.18,0-1.49,0-2.19-.09-1.32-.16-1.87a3.46,3.46,0,0,0-1.19-2.17,4.64,4.64,0,0,0-3-.83,4.87,4.87,0,0,0-3,.72,3.48,3.48,0,0,0-1.19,2.28C77.82,76.41,77.76,77,77.71,77.73Z"/>
		<path d="M99.09,92.32V67.51a1.09,1.09,0,0,1,1.08-1.08h2.68a1.4,1.4,0,0,1,.68.19.9.9,0,0,1,.46.52c.17.48.34,1,.51,1.49a1,1,0,0,0,1,.78,1.64,1.64,0,0,0,1.16-.46,13.13,13.13,0,0,1,1.3-1,8.47,8.47,0,0,1,5.23-1.49H115a1,1,0,0,1,.76.33,1,1,0,0,1,.32.75v4.32a1,1,0,0,1-.32.75,1,1,0,0,1-.76.33H113.1a7.62,7.62,0,0,0-5,1.62,6,6,0,0,0-2,4.91V92.32a1.05,1.05,0,0,1-.31.75,1,1,0,0,1-.77.33h-4.84a1.13,1.13,0,0,1-1.08-1.08Z"/>
		<path d="M117.21,82.1c0-.7-.06-1.43-.06-2.18s0-1.49.06-2.19.08-1.32.15-1.87a13.55,13.55,0,0,1,1.11-3.94,10.27,10.27,0,0,1,2.25-3.17,10.76,10.76,0,0,1,3.36-2.13,11.59,11.59,0,0,1,4.41-.79,13.37,13.37,0,0,1,4.48.71,9.67,9.67,0,0,1,3.5,2.08A9.47,9.47,0,0,1,138.74,72a11.78,11.78,0,0,1,.83,4.56V81a1,1,0,0,1-.34.75,1,1,0,0,1-.75.33H124.56a.72.72,0,0,0-.82.82,4.23,4.23,0,0,0,1.4,3.46,5,5,0,0,0,3.35,1.17,6.31,6.31,0,0,0,2.64-.5,3.28,3.28,0,0,0,1.64-1.8,1.28,1.28,0,0,1,1.24-.94h4.48a1.2,1.2,0,0,1,.75.26c.22.18.27.48.17.92a11.63,11.63,0,0,1-3.65,6.15A10.65,10.65,0,0,1,128.49,94a11.79,11.79,0,0,1-4.41-.79,10.78,10.78,0,0,1-3.36-2.14,10.08,10.08,0,0,1-2.25-3.18A13.66,13.66,0,0,1,117.36,84C117.29,83.43,117.24,82.8,117.21,82.1Zm6.58-6.5c0,.31.18.48.53.5h8.24c.35,0,.53-.17.53-.5a3.08,3.08,0,0,0-.37-1.52,2.93,2.93,0,0,0-1-1,6.06,6.06,0,0,0-1.49-.62,7,7,0,0,0-1.71-.22,5.68,5.68,0,0,0-3.51.92A3,3,0,0,0,123.79,75.6Z"/>
		<path d="M144.1,82.1c0-.7-.06-1.43-.06-2.18s0-1.49.06-2.19.08-1.32.15-1.87a13.55,13.55,0,0,1,1.11-3.94,10.29,10.29,0,0,1,2.26-3.17,10.61,10.61,0,0,1,3.4-2.13,11.84,11.84,0,0,1,4.45-.79,12.38,12.38,0,0,1,4.22.71,10,10,0,0,1,5.9,5.42,10.78,10.78,0,0,1,.89,4.45,1.2,1.2,0,0,1-.24.75.77.77,0,0,1-.68.33h-4.8a1.12,1.12,0,0,1-.67-.22.88.88,0,0,1-.35-.65,3.63,3.63,0,0,0-1.27-2.88,6.11,6.11,0,0,0-6-.16,3.42,3.42,0,0,0-1.17,2.28c-.07.55-.12,1.17-.16,1.87s0,1.43,0,2.19,0,1.48,0,2.18.09,1.33.16,1.87a3.11,3.11,0,0,0,1.16,2.2,6,6,0,0,0,5.92,0,4.28,4.28,0,0,0,1.4-3,.94.94,0,0,1,1-.87h4.8a.8.8,0,0,1,.67.33,1.19,1.19,0,0,1,.25.75,10.57,10.57,0,0,1-.89,4.42,10.22,10.22,0,0,1-2.4,3.32,10.6,10.6,0,0,1-3.5,2.11,12.17,12.17,0,0,1-4.22.74,12,12,0,0,1-4.45-.79,10.63,10.63,0,0,1-3.4-2.14,10.11,10.11,0,0,1-2.26-3.18A13.66,13.66,0,0,1,144.25,84C144.18,83.43,144.13,82.8,144.1,82.1Z"/>
		<path d="M170.93,85.1a8,8,0,0,1,.57-2.88,8.13,8.13,0,0,1,1.72-2.72,8.77,8.77,0,0,1,2.91-2,9.79,9.79,0,0,1,4.07-.79h5.51a.49.49,0,0,0,.55-.53v-.87a2.8,2.8,0,0,0-1.19-2.47,5.12,5.12,0,0,0-3-.82,7.83,7.83,0,0,0-1,.08,5.3,5.3,0,0,0-1.14.29,3.05,3.05,0,0,0-1,.62,2.14,2.14,0,0,0-.6,1.06c-.1.48-.25.77-.43.87a2.29,2.29,0,0,1-1,.16H173a1,1,0,0,1-.75-.33,1,1,0,0,1-.33-.75,6.88,6.88,0,0,1,.72-3.07,8.16,8.16,0,0,1,2.05-2.59A10.29,10.29,0,0,1,178,66.51a13.17,13.17,0,0,1,4.36-.68,11.74,11.74,0,0,1,7.85,2.51,9,9,0,0,1,3,7.26V92.32A1.13,1.13,0,0,1,192,93.4h-2.69a.92.92,0,0,1-.73-.37,2.32,2.32,0,0,1-.4-.7.64.64,0,0,0-.67-.38,1.64,1.64,0,0,0-.85.32,13.77,13.77,0,0,1-1.25.7,12.6,12.6,0,0,1-1.82.71,8.58,8.58,0,0,1-2.55.33,11,11,0,0,1-7.44-2.33A8.24,8.24,0,0,1,170.93,85.1Zm6.58,0a2.45,2.45,0,0,0,1.06,2.21,4.52,4.52,0,0,0,2.5.68,8.25,8.25,0,0,0,3.88-.82,3,3,0,0,0,1.57-2.95V83a.51.51,0,0,0-.55-.56h-5.72a2.68,2.68,0,0,0-1.39.31,2.42,2.42,0,0,0-.83.75,2.64,2.64,0,0,0-.41.89A3.63,3.63,0,0,0,177.51,85.14Z"/>
		<path d="M197.93,84.56a1.06,1.06,0,0,1,.31-.76,1,1,0,0,1,.74-.33h4.11q1,0,1.23.33a2.33,2.33,0,0,1,.4,1,2.53,2.53,0,0,0,1.5,2.19,7.61,7.61,0,0,0,3.24.63A8.47,8.47,0,0,0,213,87a2,2,0,0,0,1.37-1.89A1.6,1.6,0,0,0,214,84a2.13,2.13,0,0,0-1.15-.57L211.25,83a17.52,17.52,0,0,0-1.78-.36q-1.65-.27-3.54-.75a13.45,13.45,0,0,1-3.51-1.45,8.55,8.55,0,0,1-2.7-2.52A6.75,6.75,0,0,1,198.64,74a6,6,0,0,1,1-3.31,9.13,9.13,0,0,1,2.52-2.59,12.85,12.85,0,0,1,3.47-1.68,13.09,13.09,0,0,1,3.89-.6,14.52,14.52,0,0,1,3.72.49,11.17,11.17,0,0,1,3.43,1.51,8.2,8.2,0,0,1,2.52,2.71,7.73,7.73,0,0,1,1,4,1,1,0,0,1-.32.74,1,1,0,0,1-.76.32h-4a1.32,1.32,0,0,1-.77-.24,1.47,1.47,0,0,1-.47-1.1,2.36,2.36,0,0,0-1.52-1.89,7,7,0,0,0-2.81-.56,7.74,7.74,0,0,0-3.09.54A1.77,1.77,0,0,0,205.11,74a1.3,1.3,0,0,0,.38,1,2,2,0,0,0,1,.51l1.4.31,1.58.36c1.19.25,2.45.52,3.77.82a15.08,15.08,0,0,1,3.69,1.31,7.73,7.73,0,0,1,2.82,2.52,7.64,7.64,0,0,1,1.13,4.39,7.15,7.15,0,0,1-.92,3.61,9,9,0,0,1-2.48,2.76,11.51,11.51,0,0,1-3.63,1.79,14.82,14.82,0,0,1-4.4.64,17.87,17.87,0,0,1-4.29-.52,11,11,0,0,1-3.7-1.64,8.28,8.28,0,0,1-2.58-2.95A9.18,9.18,0,0,1,197.93,84.56Z"/>
		<path d="M222.86,72V67.67a1,1,0,0,1,.33-.75,1.07,1.07,0,0,1,.76-.33h4.23a.47.47,0,0,0,.53-.53V57.8A1,1,0,0,1,229,57a1,1,0,0,1,.75-.32h4.85a1,1,0,0,1,.75.32,1,1,0,0,1,.33.76v8.26a.46.46,0,0,0,.52.53h5.95a1.13,1.13,0,0,1,1.08,1.08V72a1.05,1.05,0,0,1-.31.75,1,1,0,0,1-.77.33h-5.95a.46.46,0,0,0-.52.52v9.77a3.21,3.21,0,0,0,.88,2.28,3.09,3.09,0,0,0,2.37.94h3.77a1,1,0,0,1,.76.33,1.07,1.07,0,0,1,.33.76v4.64a1.06,1.06,0,0,1-.33.76,1,1,0,0,1-.75.33H239a10.45,10.45,0,0,1-7.45-2.64,9.49,9.49,0,0,1-2.82-7.3V73.59a.46.46,0,0,0-.53-.52H224a1.07,1.07,0,0,1-.76-.33A1,1,0,0,1,222.86,72Z"/>
		<path d="M21.73,18.9c1.19-3.56,6.89-3.36,9.51-.34C37.1,1.28,36.8.16,38.36.56l.2.07c4.79,2.61,7.17,7.36,7,14.08a1.07,1.07,0,0,1-1.83.75L36.63,8.81c-3.22,9.68.51-1.53-4.5,13.55C30.46,27.69,20,24.2,21.73,18.9Z"/>
		<path d="M41.55,61l-.2.61c-1,2.86-4.62,4-8.28,2.79s-5.88-4.44-5-7.19,4.62-4,8.29-2.79a8.57,8.57,0,0,1,4.14,2.85l5-15.18c-2.55-.17,9.44.54-25.39-1.55L14,59.31c-.95,2.85-4.62,4-8.28,2.79s-5.88-4.45-5-7.2,4.61-4,8.28-2.79a7.66,7.66,0,0,1,4.11,3c8.2-23.63,7.32-24.38,9-24.27,27.81,2.12,29,1.61,28.38,3.44l-2.3,6.93c0,.24,0,.44-.17.51Z"/>
		<path d="M77.46,37.78l-.17.51c-.61,1.83-2.92,2.65-5.27,1.87s-3.8-2.85-3.19-4.68,3-2.75,5.4-1.94a6.92,6.92,0,0,1,2,1.12l2.41-7.23L65,26.52,61.74,36.4l-.14.41c-.61,1.83-3,2.75-5.4,1.93-5.6-1.86-3.4-8.48,2.21-6.62a5.12,5.12,0,0,1,2,1.22L63.16,25c1.35-3.39,1.15-5.16,2.61-5.13,16.09,1.62,16,1.15,16.53,2a1.31,1.31,0,0,1,.14.95L81,27.19Z"/>
	</g>
</svg>